<svg xmlns="http://www.w3.org/2000/svg" version="1.1" xmlns:xlink="http://www.w3.org/1999/xlink" xmlns:svgjs="http://svgjs.com/svgjs" width="800" height="800"><svg xmlns="http://www.w3.org/2000/svg" viewBox="0 0 800 800"><g id="SvgjsG1000" data-name="Layer 2"><path d="M418.82,565.31c0,.31.05.49.05.49S418.86,565.6,418.82,565.31Z"></path><path d="M696.52,290.59s-13.13,4-19.55,5.5c0,0,12.22-7.33,13.75-9.16s-.61-5.81-.61-5.81A174.43,174.43,0,0,1,674.53,290a34.13,34.13,0,0,0,4.89-4.89l-1.53-3.66s-18,14.66-30.24,16.49c0,0,3.66-5.8,4.58-6.72s-2.44-1.52-4.58,0-4.89,6.42-11,6.11A27.11,27.11,0,0,1,616.19,286c-6.11-8.25-45.82-44.59-69.34-57.42s-50.09-53.46-77.28-68.12S445.75,144,445.75,144l-4-3.06H425.59l-6.41,2.45s-14.06-3.06-16.5-6.11-1.53-10.69-.61-12.83,6.11-7.94,7-13.75c0,0-1.53,10.39-5.5,16.5a18,18,0,0,0,14-11.61c4.27-10.69,7.63-13.74,7.63-13.74s4-3.67,6.11-26.88-11-35.13-9.77-39.71S418.26,13.55,407,9.89s-20.16,4.58-20.16,4.58S383.44,6.83,377.63,5c0,0,5.81,3.67,6.42,8.86,0,0-18.33-13.44-35.74,0S330.6,45,329.37,47.46s-9.16,9.16-7,20.16,6.11,35.43,8.55,42.15,6.11,13.13,11.61,13.74,7.94,1.84,8.55,5.2a30,30,0,0,0-.61-13.75,23.57,23.57,0,0,0,5.19,8.55s0,12.53,1.22,17.41.62,12.22-16.49,22a19.3,19.3,0,0,0-5.19-.92,49.29,49.29,0,0,0-7,.92l-4.58,1.52a18.71,18.71,0,0,1-3.66,3.67,38.39,38.39,0,0,0-4.89,4.58l-1.22,4.58A42.39,42.39,0,0,0,286.61,202c-8.55,20.47-19.24,35.43-36.65,47s-33.3,36.65-38.79,44-8.86,13.74-12.83,15.27-7.64,6.72-9.17,7.33L182,317.75c-7.18,2.11-4.93,4.42-21.09,5.44s-37.75-1.7-38.43-1.7-.34,3.91-1.36,3.91a2.6,2.6,0,0,0-1.7.68c4.08,9.19,14.28,6.81,23.13,9s27.88,2.72,27.88,2.72c3.07,8.33,10.8,4.39,16,3.78s15.88,4,20.15-7.94c0,0,.62-5.5,6.72-9.16s31.77-15.89,53.46-35.74,15-22.3,26.88-31.16,21.07-18.93,26.57-34.51c0,0,2.14,18.33,0,24.74s-3.66,30.54-3.66,30.54l2.3-1.22,2.31,11.3s8.21,10.08,9.13,11.31,5.5,8.24,9.77,8.85,11,1.53,11,1.53l-5.8,4s.3,16.8.61,19.55a20.29,20.29,0,0,0,2.14,6.11s-12.53,31.15-16.8,59A157,157,0,0,0,321.43,414s-42.15,40-52.84,57.73c0,0,3.36-1.83,5.8-3.05,0,0-8.24,17.41-15,32.37s-52.54,62-63.54,76.37-40,22-57.11,32.37c0,0-21.08-25.35-26.58-25.65s-8.86,6.1-8.86,15S104,629.33,114,636.66s25.36,8.25,30.55,8.25,8.86,4.89,7.94,11-11,19.24-11,19.24.62,3.36,4.89,3.36c0,0,11.61-13.14,23.83-14s20.46,1.83,25.35-28.71l-2.44-.62a49.66,49.66,0,0,1,26-30.54c21.07-10.08,67.5-31.77,85.83-76.67,0,0,0,14.05,1.83,18.33l2.44.31s5.5,7,13.75,10.08c0,0,43.07,120.65,53.15,142s7.63,41.54,3.05,52.53a93.8,93.8,0,0,1-11.3,19.55s-20.16,10.39-21.08,17.11,21.39,8.55,36.35,6.11S396,786,397.79,779s9.78-17.11,12.83-17.41c0,0,4,11.3,1.53,18.63l6.72-2.14s-.31-19.55,8.25-27.49,9.77-22-2.14-32.68c0,0-10.08-11-13.14-24.13s-.91-53.15-17.41-87.36-14.35-40.32-14.35-40.32l10.38,2.75,1.23-1.83.91,4,1.83-4.89,1.23,5.5s15,.61,18.93-5.5c3.24-5,4-2.05,4.23-.79-.6-5.44-6-55.62-5.45-64.57l3.36,13.44,2.14-1.83.61,2.74s14.66-2.63,18.33-6.05v2.39s7-7.94,0-22.91-7.33-37-5.5-40.62c0,0,1.22,12.83,1.53,16.49l7.09.61s-1.77-11.61,0-16.8c0,0,.85,12.83,3.6,17.41,0,0,20.77,3.06,25.35,2.45v-3.67l2.44,5.19,2.75-5.19s-7.94-24.44-7.63-48.57l5.8.31,1.83,2.66,2.14-2.35,4-1.53s-2.75-37.88-3.05-54.37S470.8,304,467.44,286.32s-2.14-27.8-3.06-32.38l2.44,1.83.31-11.61,1.53,2.45.91-7.33s2.75-4.28,2.45-7c-.18-1.55-.54-4.48-.83-7.28h0c.15-4.32.48-8.1.83-11.19,11.23,10.46,27.33,25.19,34.21,31.31,11,9.77,20.46,20.16,35.73,26.57s57.12,26.27,62.32,30.55,13.13,9.16,16.49,10.38,7.64,7.64,11,8.86,36.65,10.08,39.7,10.08,8.25-.3,8.25-1.22-.61-4.28-8.25-7-13.13-4.88-16.19-8.24c0,0,6.11-1.22,14.06-6.72s26.87-10.69,27.18-12.22A31.17,31.17,0,0,0,696.52,290.59Z"></path></g></svg><style>@media (prefers-color-scheme: light) { :root { filter: none; } }
@media (prefers-color-scheme: dark) { :root { filter: invert(100%); } }
</style></svg>